<?xml version="1.0" encoding="UTF-8" standalone="no"?>
<svg
   xmlns:dc="http://purl.org/dc/elements/1.1/"
   xmlns:cc="http://creativecommons.org/ns#"
   xmlns:rdf="http://www.w3.org/1999/02/22-rdf-syntax-ns#"
   xmlns:svg="http://www.w3.org/2000/svg"
   xmlns="http://www.w3.org/2000/svg"
   xmlns:sodipodi="http://sodipodi.sourceforge.net/DTD/sodipodi-0.dtd"
   xmlns:inkscape="http://www.inkscape.org/namespaces/inkscape"
   viewBox="0 0 468.11997 293"
   version="1.1"
   id="svg397"
   sodipodi:docname="nutshell.svg"
   width="468.12"
   height="293"
   inkscape:version="1.0.1 (3bc2e813f5, 2020-09-07)">
  <metadata
     id="metadata401">
    <rdf:RDF>
      <cc:Work
         rdf:about="">
        <dc:format>image/svg+xml</dc:format>
        <dc:type
           rdf:resource="http://purl.org/dc/dcmitype/StillImage" />
      </cc:Work>
    </rdf:RDF>
  </metadata>
  <sodipodi:namedview
     pagecolor="#ffffff"
     bordercolor="#666666"
     borderopacity="1"
     objecttolerance="10"
     gridtolerance="10"
     guidetolerance="10"
     inkscape:pageopacity="0"
     inkscape:pageshadow="2"
     inkscape:window-width="1880"
     inkscape:window-height="1051"
     id="namedview399"
     showgrid="false"
     inkscape:zoom="1.8949065"
     inkscape:cx="234.27002"
     inkscape:cy="150.615"
     inkscape:window-x="0"
     inkscape:window-y="0"
     inkscape:window-maximized="1"
     inkscape:current-layer="svg397" />
  <defs
     id="defs4">
    <style
       id="style2">.cls-1,.cls-2,.cls-20,.cls-29,.cls-3,.cls-7,.cls-8{fill:none;}.cls-1,.cls-2{stroke:#c4c5c5;}.cls-1,.cls-2,.cls-28,.cls-3{stroke-miterlimit:11.34;}.cls-2{stroke-dasharray:9.74 4.87;}.cls-17,.cls-20,.cls-28,.cls-29,.cls-3,.cls-8{stroke:#20201e;}.cls-17,.cls-18,.cls-19,.cls-4,.cls-5,.cls-9{fill:#20201e;}.cls-5{font-size:10px;}.cls-18,.cls-19,.cls-5{font-family:Helvetica-Bold, Helvetica;font-weight:700;}.cls-10,.cls-12,.cls-6,.cls-9{font-family:Helvetica;}.cls-6{font-weight:400;}.cls-16,.cls-7{stroke:#9b9b9b;}.cls-20,.cls-7,.cls-8{stroke-linecap:square;stroke-miterlimit:10;}.cls-10,.cls-11,.cls-18,.cls-19,.cls-9{isolation:isolate;}.cls-10,.cls-12,.cls-18,.cls-19,.cls-9{font-size:9px;}.cls-10,.cls-12,.cls-16,.cls-24{fill:#9b9b9b;}.cls-13,.cls-19{letter-spacing:-0.04em;}.cls-14,.cls-21,.cls-28{fill:#d9d9d9;}.cls-14{stroke:#d9d9d9;}.cls-14,.cls-15,.cls-16,.cls-17,.cls-29{stroke-linejoin:round;}.cls-14,.cls-15,.cls-16,.cls-28,.cls-29{stroke-width:0.5px;}.cls-15,.cls-23{fill:#b0b1b1;}.cls-15{stroke:#b0b1b1;}.cls-17{stroke-width:0.6px;}.cls-20{stroke-width:3px;}.cls-22{fill:#c4c5c5;}.cls-25{letter-spacing:-0.02em;}.cls-26{letter-spacing:-0.11em;}.cls-27{letter-spacing:-0.05em;}</style>
  </defs>
  <title
     id="title6">fig_manuscript_Systemschrift_200924</title>
  <g
     id="Ebene_5_Kopie"
     data-name="Ebene 5 Kopie"
     transform="translate(-63.369999,-59.150002)">
    <line
       class="cls-1"
       x1="297.42999"
       y1="351.64999"
       x2="180.64999"
       y2="351.64999"
       id="line8" />
    <polyline
       class="cls-1"
       points="180.65 351.65 63.87 351.65 63.87 101.1"
       id="polyline10" />
    <line
       class="cls-1"
       x1="414.20999"
       y1="351.64999"
       x2="297.42999"
       y2="351.64999"
       id="line12" />
    <polyline
       class="cls-1"
       points="530.99 101.1 530.99 351.65 414.21 351.65"
       id="polyline14" />
    <line
       class="cls-1"
       x1="180.64999"
       y1="351.64999"
       x2="180.64999"
       y2="346.64999"
       id="line16" />
    <line
       class="cls-2"
       x1="180.64999"
       y1="341.78"
       x2="180.64999"
       y2="110.53"
       id="line18" />
    <line
       class="cls-1"
       x1="180.64999"
       y1="108.1"
       x2="180.64999"
       y2="103.1"
       id="line20" />
    <line
       class="cls-1"
       x1="297.42999"
       y1="351.64999"
       x2="297.42999"
       y2="346.64999"
       id="line22" />
    <line
       class="cls-2"
       x1="297.42999"
       y1="341.78"
       x2="297.42999"
       y2="110.53"
       id="line24" />
    <line
       class="cls-1"
       x1="297.42999"
       y1="108.1"
       x2="297.42999"
       y2="103.1"
       id="line26" />
    <line
       class="cls-1"
       x1="414.20999"
       y1="351.64999"
       x2="414.20999"
       y2="346.64999"
       id="line28" />
    <line
       class="cls-2"
       x1="414.20999"
       y1="341.78"
       x2="414.20999"
       y2="110.53"
       id="line30" />
    <line
       class="cls-1"
       x1="414.20999"
       y1="108.1"
       x2="414.20999"
       y2="103.1"
       id="line32" />
  </g>
  <g
     id="Ebene_3"
     data-name="Ebene 3"
     transform="translate(-63.369999,-59.150002)">
    <rect
       class="cls-3"
       x="63.869999"
       y="59.650002"
       width="116.78"
       height="41.099998"
       id="rect35" />
    <rect
       class="cls-3"
       x="180.64999"
       y="59.650002"
       width="116.78"
       height="41.099998"
       id="rect37" />
    <rect
       class="cls-3"
       x="297.42999"
       y="59.650002"
       width="116.78"
       height="41.099998"
       id="rect39" />
    <rect
       class="cls-3"
       x="414.20999"
       y="59.650002"
       width="116.78"
       height="41.099998"
       id="rect41" />
  </g>
  <g
     id="Figure"
     transform="translate(-63.369999,-59.150002)">
    <path
       class="cls-4"
       d="m 343.85,65.39 a 2.35,2.35 0 0 1 1.22,0.91 3.37,3.37 0 0 1 0.52,1.16 5.69,5.69 0 0 1 0.13,1.19 4.8,4.8 0 0 1 -0.57,2.43 2.62,2.62 0 0 1 -2.42,1.35 h -3.1 v -7.2 h 3.1 a 3.86,3.86 0 0 1 1.12,0.16 z m -2.76,1.09 v 4.7 h 1.39 a 1.49,1.49 0 0 0 1.52,-1.05 3.58,3.58 0 0 0 0.23,-1.37 3.36,3.36 0 0 0 -0.34,-1.69 1.46,1.46 0 0 0 -1.37,-0.59 z"
       id="path44" />
    <path
       class="cls-4"
       d="m 351.18,71.78 a 2.95,2.95 0 0 1 -4.1,0 3.32,3.32 0 0 1 0,-4 2.9,2.9 0 0 1 4.1,0 3.32,3.32 0 0 1 0,4 z M 350.06,71 a 2.48,2.48 0 0 0 0,-2.47 1.23,1.23 0 0 0 -1.87,0 2.48,2.48 0 0 0 0,2.47 1.23,1.23 0 0 0 1.87,0 z"
       id="path46" />
    <path
       class="cls-4"
       d="m 356,69 a 1.27,1.27 0 0 0 -0.2,-0.53 0.84,0.84 0 0 0 -0.73,-0.33 1,1 0 0 0 -1,0.7 2.74,2.74 0 0 0 -0.14,1 2.48,2.48 0 0 0 0.14,0.94 0.93,0.93 0 0 0 0.94,0.66 0.85,0.85 0 0 0 0.69,-0.26 1.33,1.33 0 0 0 0.25,-0.69 h 1.42 a 2.32,2.32 0 0 1 -2.4,2.12 2.28,2.28 0 0 1 -1.89,-0.76 3.12,3.12 0 0 1 -0.61,-2 3.16,3.16 0 0 1 0.67,-2.13 2.34,2.34 0 0 1 1.85,-0.76 2.77,2.77 0 0 1 1.64,0.45 2.08,2.08 0 0 1 0.76,1.58 z"
       id="path48" />
    <path
       class="cls-4"
       d="m 358.39,65.25 h 1.37 v 3.89 l 1.76,-2 h 1.73 l -1.91,2 2,3.32 h -1.69 l -1.29,-2.28 -0.58,0.6 v 1.68 h -1.37 z"
       id="path50" />
    <path
       class="cls-4"
       d="m 367.44,67.21 a 2.18,2.18 0 0 1 0.92,0.79 2.53,2.53 0 0 1 0.42,1.1 7.38,7.38 0 0 1 0.05,1.06 H 365 a 1.28,1.28 0 0 0 0.56,1.12 1.43,1.43 0 0 0 0.76,0.2 1.21,1.21 0 0 0 0.78,-0.24 1.09,1.09 0 0 0 0.28,-0.37 h 1.42 a 1.63,1.63 0 0 1 -0.51,1 2.59,2.59 0 0 1 -2,0.78 2.9,2.9 0 0 1 -1.88,-0.66 2.57,2.57 0 0 1 -0.81,-2.13 2.87,2.87 0 0 1 0.73,-2.12 2.59,2.59 0 0 1 1.91,-0.74 3.13,3.13 0 0 1 1.2,0.21 z m -2.08,1.21 a 1.39,1.39 0 0 0 -0.37,0.82 h 2.39 a 1.14,1.14 0 0 0 -0.37,-0.84 1.23,1.23 0 0 0 -0.82,-0.29 1.06,1.06 0 0 0 -0.83,0.31 z"
       id="path52" />
    <path
       class="cls-4"
       d="m 372.49,67 h 0.12 v 1.42 h -0.24 -0.16 a 1.15,1.15 0 0 0 -1.13,0.55 2.06,2.06 0 0 0 -0.16,0.94 v 2.55 h -1.4 V 67.1 h 1.32 V 68 a 3.07,3.07 0 0 1 0.57,-0.72 1.52,1.52 0 0 1 1,-0.33 z"
       id="path54" />
    <path
       class="cls-4"
       d="m 338.09,81.79 a 1.33,1.33 0 0 0 0.22,0.67 1.45,1.45 0 0 0 1.18,0.43 1.79,1.79 0 0 0 0.88,-0.22 0.7,0.7 0 0 0 0.38,-0.65 0.56,0.56 0 0 0 -0.31,-0.52 3.82,3.82 0 0 0 -0.76,-0.25 l -0.71,-0.17 a 3.65,3.65 0 0 1 -1,-0.37 1.11,1.11 0 0 1 -0.58,-1 1.51,1.51 0 0 1 0.54,-1.2 2.18,2.18 0 0 1 1.46,-0.46 2,2 0 0 1 1.73,0.69 1.49,1.49 0 0 1 0.32,1 h -0.83 a 1.06,1.06 0 0 0 -0.21,-0.54 1.41,1.41 0 0 0 -1.08,-0.34 1.27,1.27 0 0 0 -0.77,0.19 0.56,0.56 0 0 0 -0.26,0.5 0.59,0.59 0 0 0 0.34,0.54 2,2 0 0 0 0.59,0.22 l 0.59,0.14 a 4.7,4.7 0 0 1 1.29,0.44 1.17,1.17 0 0 1 0.52,1.06 1.6,1.6 0 0 1 -0.54,1.21 2.29,2.29 0 0 1 -1.63,0.51 2.24,2.24 0 0 1 -1.68,-0.53 2,2 0 0 1 -0.52,-1.31 z"
       id="path56" />
    <path
       class="cls-4"
       d="m 346.36,78.72 a 2.65,2.65 0 0 1 0.69,2 3.41,3.41 0 0 1 -0.61,2.09 2.21,2.21 0 0 1 -1.9,0.82 2.12,2.12 0 0 1 -1.7,-0.73 2.89,2.89 0 0 1 -0.63,-2 3.09,3.09 0 0 1 0.67,-2.09 2.21,2.21 0 0 1 1.78,-0.78 2.35,2.35 0 0 1 1.7,0.69 z m -0.55,3.48 a 3.31,3.31 0 0 0 0.32,-1.48 2.6,2.6 0 0 0 -0.23,-1.19 1.3,1.3 0 0 0 -1.26,-0.72 1.24,1.24 0 0 0 -1.16,0.62 2.87,2.87 0 0 0 -0.37,1.48 2.5,2.5 0 0 0 0.37,1.39 1.27,1.27 0 0 0 1.15,0.56 1.19,1.19 0 0 0 1.18,-0.66 z"
       id="path58" />
    <path
       class="cls-4"
       d="m 348.54,76.6 a 1.34,1.34 0 0 1 1.19,-0.45 h 0.37 V 77 h -0.32 q -0.4,0 -0.48,0.21 a 3.65,3.65 0 0 0 -0.08,1 h 0.88 v 0.7 h -0.88 v 4.51 h -0.87 v -4.5 h -0.73 v -0.7 h 0.73 V 77.4 a 1.59,1.59 0 0 1 0.19,-0.8 z"
       id="path60" />
    <path
       class="cls-4"
       d="M 351.08,76.74 H 352 v 1.46 h 0.84 v 0.72 H 352 v 3.41 a 0.35,0.35 0 0 0 0.19,0.36 0.71,0.71 0 0 0 0.34,0.06 h 0.14 0.17 v 0.7 a 1.65,1.65 0 0 1 -0.32,0.06 h -0.35 a 1,1 0 0 1 -0.84,-0.31 1.47,1.47 0 0 1 -0.22,-0.82 v -3.46 h -0.7 V 78.2 h 0.7 z"
       id="path62" />
    <path
       class="cls-4"
       d="m 354.09,78.2 1,4.12 1,-4.12 h 1 l 1,4.09 1.07,-4.09 h 0.88 l -1.52,5.23 h -0.91 l -1.07,-4.05 -1,4.05 h -0.91 l -1.51,-5.23 z"
       id="path64" />
    <path
       class="cls-4"
       d="m 363.71,80.26 a 0.48,0.48 0 0 0 0.41,-0.25 1,1 0 0 0 0.05,-0.34 0.7,0.7 0 0 0 -0.31,-0.65 1.69,1.69 0 0 0 -0.92,-0.21 1,1 0 0 0 -1.18,1 h -0.82 a 1.5,1.5 0 0 1 0.62,-1.35 2.62,2.62 0 0 1 1.4,-0.38 2.9,2.9 0 0 1 1.5,0.35 1.2,1.2 0 0 1 0.57,1.1 v 3 a 0.38,0.38 0 0 0 0.06,0.22 c 0,0 0.11,0.08 0.23,0.08 h 0.13 0.16 v 0.65 a 1.38,1.38 0 0 1 -0.31,0.07 H 365 a 0.71,0.71 0 0 1 -0.65,-0.32 1.18,1.18 0 0 1 -0.16,-0.49 2.11,2.11 0 0 1 -0.77,0.61 2.27,2.27 0 0 1 -1.11,0.26 1.6,1.6 0 0 1 -1.18,-0.44 1.57,1.57 0 0 1 0,-2.23 2.12,2.12 0 0 1 1.19,-0.49 z m -1.85,2.38 a 1.09,1.09 0 0 0 0.66,0.22 2.06,2.06 0 0 0 0.9,-0.22 1.2,1.2 0 0 0 0.73,-1.16 v -0.71 a 1.41,1.41 0 0 1 -0.41,0.17 3.16,3.16 0 0 1 -0.5,0.1 l -0.53,0.07 a 2,2 0 0 0 -0.72,0.2 0.77,0.77 0 0 0 -0.41,0.73 0.72,0.72 0 0 0 0.28,0.6 z"
       id="path66" />
    <path
       class="cls-4"
       d="m 366.49,78.2 h 0.84 v 0.9 a 2,2 0 0 1 0.5,-0.64 1.33,1.33 0 0 1 0.92,-0.38 H 369 V 79 h -0.15 -0.14 a 1.25,1.25 0 0 0 -1,0.43 1.47,1.47 0 0 0 -0.36,1 v 3 h -0.88 z"
       id="path68" />
    <path
       class="cls-4"
       d="m 373,78.34 a 2,2 0 0 1 0.79,0.68 2.27,2.27 0 0 1 0.35,0.92 6.2,6.2 0 0 1 0.08,1.15 h -3.81 a 2.21,2.21 0 0 0 0.38,1.28 1.22,1.22 0 0 0 1.08,0.49 1.41,1.41 0 0 0 1.13,-0.46 1.56,1.56 0 0 0 0.32,-0.61 h 0.86 a 1.74,1.74 0 0 1 -0.22,0.64 2.43,2.43 0 0 1 -0.43,0.58 2.06,2.06 0 0 1 -1,0.52 2.57,2.57 0 0 1 -0.71,0.08 2.14,2.14 0 0 1 -1.64,-0.71 2.76,2.76 0 0 1 -0.68,-2 3,3 0 0 1 0.68,-2 2.23,2.23 0 0 1 1.78,-0.79 2.41,2.41 0 0 1 1.04,0.23 z m 0.31,2.06 a 2.2,2.2 0 0 0 -0.24,-0.92 1.27,1.27 0 0 0 -1.2,-0.63 1.34,1.34 0 0 0 -1,0.43 1.72,1.72 0 0 0 -0.43,1.12 z"
       id="path70" />
    <path
       class="cls-4"
       d="M 332.18,89.34 A 2,2 0 0 1 333,90 a 2.27,2.27 0 0 1 0.35,0.92 6.2,6.2 0 0 1 0.08,1.15 h -3.81 a 2.29,2.29 0 0 0 0.38,1.28 1.22,1.22 0 0 0 1.08,0.49 1.41,1.41 0 0 0 1.09,-0.46 1.56,1.56 0 0 0 0.32,-0.61 h 0.86 a 1.74,1.74 0 0 1 -0.22,0.64 2.43,2.43 0 0 1 -0.43,0.58 2.06,2.06 0 0 1 -1,0.52 2.57,2.57 0 0 1 -0.71,0.08 2.14,2.14 0 0 1 -1.64,-0.71 2.76,2.76 0 0 1 -0.68,-2 3,3 0 0 1 0.68,-2 2.23,2.23 0 0 1 1.78,-0.79 2.41,2.41 0 0 1 1.05,0.25 z m 0.31,2.06 a 2.2,2.2 0 0 0 -0.24,-0.92 1.27,1.27 0 0 0 -1.2,-0.63 1.34,1.34 0 0 0 -1,0.43 1.72,1.72 0 0 0 -0.43,1.12 z"
       id="path72" />
    <path
       class="cls-4"
       d="m 334.51,89.2 h 0.84 v 0.74 a 2.24,2.24 0 0 1 0.78,-0.66 2.18,2.18 0 0 1 0.93,-0.2 1.52,1.52 0 0 1 1.5,0.78 2.8,2.8 0 0 1 0.21,1.21 v 3.36 h -0.89 v -3.3 a 1.86,1.86 0 0 0 -0.14,-0.77 0.86,0.86 0 0 0 -0.85,-0.49 1.46,1.46 0 0 0 -0.51,0.07 1.33,1.33 0 0 0 -0.64,0.42 1.4,1.4 0 0 0 -0.28,0.54 3.22,3.22 0 0 0 -0.07,0.79 v 2.74 h -0.88 z"
       id="path74" />
    <path
       class="cls-4"
       d="m 340.51,89.2 1.39,4.26 1.46,-4.26 h 1 l -2,5.23 h -0.94 l -1.93,-5.23 z"
       id="path76" />
    <path
       class="cls-4"
       d="m 345.07,87.25 h 0.9 v 1 h -0.9 z m 0,2 h 0.9 v 5.21 h -0.9 z"
       id="path78" />
    <path
       class="cls-4"
       d="m 347.32,89.2 h 0.83 v 0.9 a 2.05,2.05 0 0 1 0.51,-0.64 1.29,1.29 0 0 1 0.92,-0.38 h 0.28 V 90 h -0.14 -0.15 a 1.25,1.25 0 0 0 -1,0.43 1.51,1.51 0 0 0 -0.35,1 v 3 h -0.88 z"
       id="path80" />
    <path
       class="cls-4"
       d="m 354.41,89.72 a 2.61,2.61 0 0 1 0.7,2 3.47,3.47 0 0 1 -0.61,2.09 2.21,2.21 0 0 1 -1.9,0.82 2.12,2.12 0 0 1 -1.7,-0.73 2.89,2.89 0 0 1 -0.63,-2 3.14,3.14 0 0 1 0.66,-2.09 2.24,2.24 0 0 1 1.79,-0.78 2.32,2.32 0 0 1 1.69,0.69 z m -0.54,3.48 a 3.45,3.45 0 0 0 0.32,-1.48 2.74,2.74 0 0 0 -0.23,-1.19 1.31,1.31 0 0 0 -1.27,-0.72 1.26,1.26 0 0 0 -1.16,0.62 2.87,2.87 0 0 0 -0.36,1.48 2.5,2.5 0 0 0 0.36,1.39 1.29,1.29 0 0 0 1.15,0.56 1.21,1.21 0 0 0 1.19,-0.66 z"
       id="path82" />
    <path
       class="cls-4"
       d="M 356.19,89.2 H 357 v 0.74 a 2.26,2.26 0 0 1 0.79,-0.66 2.11,2.11 0 0 1 0.92,-0.2 1.52,1.52 0 0 1 1.5,0.78 2.64,2.64 0 0 1 0.22,1.21 v 3.36 h -0.89 v -3.3 a 1.7,1.7 0 0 0 -0.15,-0.77 0.85,0.85 0 0 0 -0.85,-0.49 1.49,1.49 0 0 0 -0.51,0.07 1.41,1.41 0 0 0 -0.92,1 4,4 0 0 0 -0.06,0.79 v 2.74 h -0.88 z"
       id="path84" />
    <path
       class="cls-4"
       d="m 361.75,89.2 h 0.87 v 0.74 a 2.93,2.93 0 0 1 0.56,-0.56 1.7,1.7 0 0 1 1,-0.3 1.54,1.54 0 0 1 1,0.31 1.72,1.72 0 0 1 0.39,0.52 1.93,1.93 0 0 1 0.68,-0.63 2,2 0 0 1 0.89,-0.2 1.45,1.45 0 0 1 1.44,0.76 2.48,2.48 0 0 1 0.2,1.11 v 3.48 h -0.91 v -3.64 a 0.85,0.85 0 0 0 -0.26,-0.71 1,1 0 0 0 -0.64,-0.2 1.28,1.28 0 0 0 -0.89,0.35 1.51,1.51 0 0 0 -0.37,1.16 v 3 h -0.9 V 91 a 1.84,1.84 0 0 0 -0.12,-0.77 0.78,0.78 0 0 0 -0.75,-0.37 1.31,1.31 0 0 0 -0.91,0.39 1.88,1.88 0 0 0 -0.4,1.39 v 2.78 h -0.88 z"
       id="path86" />
    <path
       class="cls-4"
       d="m 373.31,89.34 a 2,2 0 0 1 0.79,0.68 2.42,2.42 0 0 1 0.35,0.92 6.2,6.2 0 0 1 0.08,1.15 h -3.81 a 2.21,2.21 0 0 0 0.38,1.28 1.22,1.22 0 0 0 1.08,0.49 1.43,1.43 0 0 0 1.09,-0.46 1.56,1.56 0 0 0 0.32,-0.61 h 0.86 a 2,2 0 0 1 -0.22,0.64 2.73,2.73 0 0 1 -0.43,0.58 2.06,2.06 0 0 1 -1,0.52 2.62,2.62 0 0 1 -0.71,0.08 2.17,2.17 0 0 1 -1.65,-0.71 2.75,2.75 0 0 1 -0.67,-2 3,3 0 0 1 0.68,-2 2.21,2.21 0 0 1 1.78,-0.79 2.44,2.44 0 0 1 1.08,0.23 z m 0.31,2.06 a 2.2,2.2 0 0 0 -0.24,-0.92 1.27,1.27 0 0 0 -1.2,-0.63 1.32,1.32 0 0 0 -1,0.43 1.72,1.72 0 0 0 -0.43,1.12 z"
       id="path88" />
    <path
       class="cls-4"
       d="m 375.64,89.2 h 0.83 v 0.74 a 2.26,2.26 0 0 1 0.79,-0.66 2.14,2.14 0 0 1 0.92,-0.2 1.52,1.52 0 0 1 1.51,0.78 2.8,2.8 0 0 1 0.21,1.21 v 3.36 H 379 v -3.3 a 1.86,1.86 0 0 0 -0.14,-0.77 0.86,0.86 0 0 0 -0.85,-0.49 1.56,1.56 0 0 0 -0.52,0.07 1.3,1.3 0 0 0 -0.63,0.42 1.43,1.43 0 0 0 -0.29,0.54 4,4 0 0 0 -0.06,0.79 v 2.74 h -0.88 z"
       id="path90" />
    <path
       class="cls-4"
       d="m 381.38,87.74 h 0.89 v 1.46 h 0.83 v 0.72 h -0.83 v 3.41 a 0.36,0.36 0 0 0 0.18,0.36 0.71,0.71 0 0 0 0.34,0.06 h 0.14 0.17 v 0.7 a 1.7,1.7 0 0 1 -0.31,0.06 h -0.36 a 0.93,0.93 0 0 1 -0.83,-0.31 1.39,1.39 0 0 1 -0.22,-0.82 v -3.46 h -0.71 V 89.2 h 0.71 z"
       id="path92" />
    <path
       class="cls-4"
       d="m 449.64,65.42 a 1.74,1.74 0 0 1 0.67,0.5 2.28,2.28 0 0 1 0.36,0.6 2.06,2.06 0 0 1 0.14,0.76 2.2,2.2 0 0 1 -0.26,1 1.45,1.45 0 0 1 -0.86,0.7 1.3,1.3 0 0 1 0.71,0.57 2.32,2.32 0 0 1 0.21,1.12 v 0.49 a 3.35,3.35 0 0 0 0,0.67 0.63,0.63 0 0 0 0.27,0.41 v 0.18 h -1.66 q -0.06,-0.24 -0.09,-0.39 a 4.2,4.2 0 0 1 -0.07,-0.62 v -0.67 a 1.36,1.36 0 0 0 -0.23,-0.92 1.25,1.25 0 0 0 -0.86,-0.23 h -1.47 v 2.83 h -1.47 v -7.2 h 3.44 a 3.05,3.05 0 0 1 1.17,0.2 z m -3.11,1.06 v 1.93 h 1.62 a 1.87,1.87 0 0 0 0.72,-0.11 0.81,0.81 0 0 0 0.43,-0.81 0.91,0.91 0 0 0 -0.41,-0.88 1.45,1.45 0 0 0 -0.7,-0.13 z"
       id="path94" />
    <path
       class="cls-4"
       d="m 457,65.23 h 2.17 v 7.2 h -1.41 v -4.87 c 0,-0.14 0,-0.34 0,-0.59 v -0.58 l -1.36,6 H 455 l -1.36,-6 c 0,0.13 0,0.33 0,0.58 v 5.46 h -1.4 v -7.2 h 2.19 l 1.31,5.66 z"
       id="path96" />
    <path
       class="cls-4"
       d="m 462.57,69.19 a 2.08,2.08 0 0 0 0.56,-0.12 0.43,0.43 0 0 0 0.3,-0.4 0.47,0.47 0 0 0 -0.23,-0.45 1.5,1.5 0 0 0 -0.68,-0.12 0.87,0.87 0 0 0 -0.7,0.24 1,1 0 0 0 -0.2,0.49 h -1.35 a 2,2 0 0 1 0.4,-1.15 2.28,2.28 0 0 1 1.9,-0.7 3.44,3.44 0 0 1 1.56,0.34 1.35,1.35 0 0 1 0.68,1.31 v 2.44 c 0,0.17 0,0.38 0,0.62 a 0.84,0.84 0 0 0 0.08,0.37 0.49,0.49 0 0 0 0.21,0.16 v 0.21 h -1.52 a 1.29,1.29 0 0 1 -0.08,-0.31 2.53,2.53 0 0 1 0,-0.32 2.85,2.85 0 0 1 -0.67,0.53 1.94,1.94 0 0 1 -1,0.26 1.72,1.72 0 0 1 -1.2,-0.41 1.45,1.45 0 0 1 -0.53,-1.18 1.52,1.52 0 0 1 0.77,-1.42 3.33,3.33 0 0 1 1.23,-0.34 z m 0.85,0.65 a 1.66,1.66 0 0 1 -0.27,0.13 1.73,1.73 0 0 1 -0.37,0.1 l -0.32,0.06 a 2,2 0 0 0 -0.64,0.19 0.62,0.62 0 0 0 -0.32,0.59 0.58,0.58 0 0 0 0.2,0.51 0.71,0.71 0 0 0 0.48,0.16 1.46,1.46 0 0 0 0.84,-0.26 1.12,1.12 0 0 0 0.4,-1 z"
       id="path98" />
    <path
       class="cls-4"
       d="m 469,67 h 0.12 v 1.42 h -0.23 -0.17 a 1.16,1.16 0 0 0 -1.13,0.55 2.21,2.21 0 0 0 -0.16,0.94 v 2.55 H 466 V 67.1 h 1.33 V 68 a 2.84,2.84 0 0 1 0.56,-0.72 1.53,1.53 0 0 1 1,-0.33 z"
       id="path100" />
    <path
       class="cls-4"
       d="m 469.9,65.25 h 1.37 v 3.89 l 1.76,-2 h 1.73 l -1.91,2 2,3.32 h -1.69 l -1.29,-2.28 -0.58,0.6 v 1.68 h -1.39 z"
       id="path102" />
    <path
       class="cls-4"
       d="m 478.3,67.19 a 1.64,1.64 0 0 1 0.61,0.59 v -2.54 h 1.41 v 7.19 H 479 v -0.74 a 1.87,1.87 0 0 1 -0.68,0.69 1.94,1.94 0 0 1 -1,0.21 2,2 0 0 1 -1.56,-0.75 2.87,2.87 0 0 1 -0.64,-1.94 3.31,3.31 0 0 1 0.63,-2.14 2,2 0 0 1 1.67,-0.78 1.74,1.74 0 0 1 0.88,0.21 z m 0.34,3.79 a 1.9,1.9 0 0 0 0.31,-1.14 1.73,1.73 0 0 0 -0.49,-1.39 1.06,1.06 0 0 0 -0.7,-0.26 1,1 0 0 0 -0.9,0.47 2.1,2.1 0 0 0 -0.29,1.14 2.15,2.15 0 0 0 0.29,1.18 1,1 0 0 0 0.89,0.44 1,1 0 0 0 0.89,-0.42 z"
       id="path104" />
    <path
       class="cls-4"
       d="m 486,71.78 a 2.95,2.95 0 0 1 -4.1,0 3.32,3.32 0 0 1 0,-4 2.9,2.9 0 0 1 4.1,0 3.32,3.32 0 0 1 0,4 z M 484.91,71 a 2.48,2.48 0 0 0 0,-2.47 1.08,1.08 0 0 0 -0.93,-0.43 1.1,1.1 0 0 0 -0.94,0.43 2.48,2.48 0 0 0 -0.04,2.47 1.1,1.1 0 0 0 0.94,0.43 1.08,1.08 0 0 0 0.97,-0.43 z"
       id="path106" />
    <path
       class="cls-4"
       d="m 490.21,67.1 h 1.41 l 0.81,3.84 0.83,-3.84 h 1.45 l -1.54,5.33 h -1.44 l -0.83,-3.88 -0.85,3.88 h -1.44 l -1.49,-5.33 h 1.49 l 0.83,3.82 z"
       id="path108" />
    <path
       class="cls-4"
       d="m 499.77,67.41 a 1.79,1.79 0 0 1 0.52,1.43 v 3.59 h -1.43 v -3.24 a 1.39,1.39 0 0 0 -0.11,-0.64 0.76,0.76 0 0 0 -0.77,-0.41 1,1 0 0 0 -1,0.6 2.08,2.08 0 0 0 -0.13,0.81 v 2.88 h -1.4 v -5.32 h 1.35 v 0.78 a 2.42,2.42 0 0 1 0.51,-0.59 1.75,1.75 0 0 1 1.08,-0.32 2,2 0 0 1 1.38,0.43 z"
       id="path110" />
    <path
       class="cls-4"
       d="m 434.15,78.36 a 2.44,2.44 0 0 1 0.53,0.51 v -2.64 h 0.85 v 7.2 h -0.79 V 82.7 a 2,2 0 0 1 -0.73,0.7 2.12,2.12 0 0 1 -1,0.21 1.94,1.94 0 0 1 -1.51,-0.73 2.9,2.9 0 0 1 -0.63,-2 3.37,3.37 0 0 1 0.58,-2 1.9,1.9 0 0 1 1.66,-0.84 1.83,1.83 0 0 1 1.04,0.32 z m -2,3.92 a 1.24,1.24 0 0 0 1.14,0.57 1.19,1.19 0 0 0 1,-0.53 2.43,2.43 0 0 0 0.4,-1.51 2.21,2.21 0 0 0 -0.41,-1.46 1.25,1.25 0 0 0 -1,-0.48 1.3,1.3 0 0 0 -1.07,0.51 2.3,2.3 0 0 0 -0.42,1.49 2.59,2.59 0 0 0 0.4,1.41 z"
       id="path112" />
    <path
       class="cls-4"
       d="m 440.11,78.2 h 1 c -0.12,0.33 -0.4,1.1 -0.82,2.29 -0.32,0.9 -0.59,1.64 -0.81,2.2 a 13.8,13.8 0 0 1 -1.07,2.44 1.23,1.23 0 0 1 -1.07,0.44 H 437 l -0.24,-0.06 v -0.8 l 0.33,0.08 h 0.18 a 0.6,0.6 0 0 0 0.36,-0.08 0.86,0.86 0 0 0 0.19,-0.19 c 0,0 0.07,-0.16 0.17,-0.4 0.1,-0.24 0.18,-0.42 0.22,-0.54 L 436.3,78.2 h 1 l 1.4,4.26 z"
       id="path114" />
    <path
       class="cls-4"
       d="m 441.84,78.2 h 0.83 v 0.74 a 2.26,2.26 0 0 1 0.79,-0.66 2.17,2.17 0 0 1 0.92,-0.2 1.52,1.52 0 0 1 1.51,0.78 2.8,2.8 0 0 1 0.21,1.21 v 3.36 h -0.89 v -3.3 a 1.86,1.86 0 0 0 -0.14,-0.77 0.86,0.86 0 0 0 -0.85,-0.49 1.56,1.56 0 0 0 -0.52,0.07 1.3,1.3 0 0 0 -0.63,0.42 1.43,1.43 0 0 0 -0.29,0.54 4,4 0 0 0 -0.06,0.79 v 2.74 h -0.88 z"
       id="path116" />
    <path
       class="cls-4"
       d="m 450.2,80.26 a 0.47,0.47 0 0 0 0.41,-0.25 0.77,0.77 0 0 0 0.06,-0.34 0.71,0.71 0 0 0 -0.32,-0.65 1.67,1.67 0 0 0 -0.92,-0.21 1,1 0 0 0 -1.18,1 h -0.82 a 1.52,1.52 0 0 1 0.63,-1.35 2.56,2.56 0 0 1 1.39,-0.38 2.87,2.87 0 0 1 1.5,0.35 1.2,1.2 0 0 1 0.57,1.1 v 3 a 0.38,0.38 0 0 0 0.06,0.22 0.28,0.28 0 0 0 0.24,0.08 h 0.18 0.15 v 0.65 a 1.28,1.28 0 0 1 -0.31,0.07 h -0.29 a 0.74,0.74 0 0 1 -0.66,-0.32 1.35,1.35 0 0 1 -0.15,-0.49 2.19,2.19 0 0 1 -0.77,0.61 2.33,2.33 0 0 1 -1.11,0.26 1.62,1.62 0 0 1 -1.19,-0.44 1.59,1.59 0 0 1 0,-2.23 2.12,2.12 0 0 1 1.19,-0.49 z m -1.85,2.38 a 1.09,1.09 0 0 0 0.66,0.22 2.06,2.06 0 0 0 0.9,-0.22 1.2,1.2 0 0 0 0.73,-1.16 v -0.71 a 1.21,1.21 0 0 1 -0.41,0.17 3.16,3.16 0 0 1 -0.5,0.1 l -0.53,0.07 a 2,2 0 0 0 -0.72,0.2 0.77,0.77 0 0 0 -0.41,0.73 0.75,0.75 0 0 0 0.28,0.6 z"
       id="path118" />
    <path
       class="cls-4"
       d="m 453,78.2 h 0.87 v 0.74 a 2.93,2.93 0 0 1 0.57,-0.56 1.69,1.69 0 0 1 1,-0.3 1.52,1.52 0 0 1 1,0.31 1.72,1.72 0 0 1 0.39,0.52 2,2 0 0 1 0.69,-0.63 2,2 0 0 1 0.89,-0.2 1.44,1.44 0 0 1 1.43,0.76 A 2.47,2.47 0 0 1 460,80 v 3.48 h -0.91 v -3.69 a 0.83,0.83 0 0 0 -0.27,-0.71 1,1 0 0 0 -0.63,-0.2 1.26,1.26 0 0 0 -0.89,0.35 1.51,1.51 0 0 0 -0.38,1.16 v 3 H 456 V 80 a 1.67,1.67 0 0 0 -0.13,-0.77 0.76,0.76 0 0 0 -0.75,-0.37 1.27,1.27 0 0 0 -0.9,0.39 1.87,1.87 0 0 0 -0.41,1.39 v 2.78 H 453 Z"
       id="path120" />
    <path
       class="cls-4"
       d="m 461.29,76.25 h 0.9 v 1 h -0.9 z m 0,2 h 0.9 v 5.21 h -0.9 z"
       id="path122" />
    <path
       class="cls-4"
       d="m 467,78.48 a 2.07,2.07 0 0 1 0.67,1.48 h -0.86 a 1.55,1.55 0 0 0 -0.36,-0.81 1.12,1.12 0 0 0 -0.89,-0.32 1.24,1.24 0 0 0 -1.2,0.82 3.2,3.2 0 0 0 -0.26,1.35 2.5,2.5 0 0 0 0.33,1.33 1.3,1.3 0 0 0 1.91,0.2 1.85,1.85 0 0 0 0.44,-0.91 h 0.86 a 2.32,2.32 0 0 1 -0.74,1.52 2.29,2.29 0 0 1 -1.5,0.48 2,2 0 0 1 -1.63,-0.75 2.84,2.84 0 0 1 -0.61,-1.87 3.15,3.15 0 0 1 0.67,-2.15 2.14,2.14 0 0 1 1.7,-0.76 2.26,2.26 0 0 1 1.47,0.39 z"
       id="path124" />
    <path
       class="cls-4"
       d="m 474.17,78.36 a 2.69,2.69 0 0 1 0.53,0.51 v -2.64 h 0.84 v 7.2 h -0.79 V 82.7 a 2,2 0 0 1 -0.72,0.7 2.12,2.12 0 0 1 -1,0.21 1.93,1.93 0 0 1 -1.51,-0.73 2.86,2.86 0 0 1 -0.64,-2 3.45,3.45 0 0 1 0.58,-2 1.9,1.9 0 0 1 1.66,-0.84 1.87,1.87 0 0 1 1.05,0.32 z m -2,3.92 a 1.25,1.25 0 0 0 1.14,0.57 1.2,1.2 0 0 0 1,-0.53 2.49,2.49 0 0 0 0.39,-1.51 2.21,2.21 0 0 0 -0.4,-1.46 1.25,1.25 0 0 0 -1,-0.48 1.3,1.3 0 0 0 -1.07,0.51 2.36,2.36 0 0 0 -0.41,1.49 2.68,2.68 0 0 0 0.38,1.41 z"
       id="path126" />
    <path
       class="cls-4"
       d="m 480.64,78.72 a 2.61,2.61 0 0 1 0.7,2 3.47,3.47 0 0 1 -0.61,2.09 2.21,2.21 0 0 1 -1.9,0.82 2.12,2.12 0 0 1 -1.7,-0.73 2.89,2.89 0 0 1 -0.63,-2 3.14,3.14 0 0 1 0.66,-2.09 2.23,2.23 0 0 1 1.79,-0.78 2.32,2.32 0 0 1 1.69,0.69 z m -0.54,3.48 a 3.45,3.45 0 0 0 0.32,-1.48 2.74,2.74 0 0 0 -0.23,-1.19 1.31,1.31 0 0 0 -1.27,-0.72 1.25,1.25 0 0 0 -1.16,0.62 2.87,2.87 0 0 0 -0.36,1.48 2.5,2.5 0 0 0 0.36,1.39 1.28,1.28 0 0 0 1.15,0.56 1.21,1.21 0 0 0 1.19,-0.66 z"
       id="path128" />
    <path
       class="cls-4"
       d="m 485.87,78.48 a 2.07,2.07 0 0 1 0.67,1.48 h -0.86 a 1.62,1.62 0 0 0 -0.35,-0.81 1.16,1.16 0 0 0 -0.9,-0.32 1.24,1.24 0 0 0 -1.2,0.82 3.2,3.2 0 0 0 -0.23,1.35 2.5,2.5 0 0 0 0.33,1.33 1.3,1.3 0 0 0 1.91,0.2 1.85,1.85 0 0 0 0.44,-0.91 h 0.86 a 2.08,2.08 0 0 1 -2.23,2 2,2 0 0 1 -1.64,-0.75 2.84,2.84 0 0 1 -0.61,-1.87 3.15,3.15 0 0 1 0.67,-2.15 2.14,2.14 0 0 1 1.7,-0.76 2.26,2.26 0 0 1 1.44,0.39 z"
       id="path130" />
    <path
       class="cls-4"
       d="m 488.29,78.2 v 3.47 a 1.5,1.5 0 0 0 0.13,0.65 0.84,0.84 0 0 0 0.85,0.47 1.2,1.2 0 0 0 1.22,-0.82 3.48,3.48 0 0 0 0.17,-1.2 V 78.2 h 0.88 v 5.23 h -0.83 v -0.77 a 1.83,1.83 0 0 1 -0.42,0.5 1.79,1.79 0 0 1 -1.19,0.41 1.55,1.55 0 0 1 -1.5,-0.75 2.31,2.31 0 0 1 -0.21,-1.07 V 78.2 Z"
       id="path132" />
    <path
       class="cls-4"
       d="m 493,78.2 h 0.87 v 0.74 a 2.67,2.67 0 0 1 0.56,-0.56 1.7,1.7 0 0 1 1,-0.3 1.5,1.5 0 0 1 1,0.31 1.59,1.59 0 0 1 0.4,0.52 1.93,1.93 0 0 1 0.68,-0.63 2,2 0 0 1 0.89,-0.2 1.45,1.45 0 0 1 1.44,0.76 A 2.48,2.48 0 0 1 500,80 v 3.48 h -0.91 v -3.69 a 0.85,0.85 0 0 0 -0.26,-0.71 1.06,1.06 0 0 0 -0.64,-0.2 1.28,1.28 0 0 0 -0.89,0.35 1.51,1.51 0 0 0 -0.37,1.16 v 3 H 496 V 80 a 1.84,1.84 0 0 0 -0.12,-0.77 0.78,0.78 0 0 0 -0.75,-0.37 1.31,1.31 0 0 0 -0.91,0.39 1.88,1.88 0 0 0 -0.4,1.39 v 2.78 H 493 Z"
       id="path134" />
    <path
       class="cls-4"
       d="m 504.54,78.34 a 2,2 0 0 1 0.79,0.68 2.42,2.42 0 0 1 0.35,0.92 6.2,6.2 0 0 1 0.08,1.15 H 502 a 2.28,2.28 0 0 0 0.37,1.28 1.25,1.25 0 0 0 1.09,0.49 1.43,1.43 0 0 0 1.09,-0.46 1.7,1.7 0 0 0 0.32,-0.61 h 0.86 a 2,2 0 0 1 -0.22,0.64 2.73,2.73 0 0 1 -0.51,0.57 2.06,2.06 0 0 1 -1,0.52 2.62,2.62 0 0 1 -0.71,0.08 2.17,2.17 0 0 1 -1.65,-0.71 2.75,2.75 0 0 1 -0.67,-2 3,3 0 0 1 0.68,-2 2.21,2.21 0 0 1 1.78,-0.79 2.44,2.44 0 0 1 1.11,0.24 z m 0.31,2.06 a 2.36,2.36 0 0 0 -0.24,-0.92 1.27,1.27 0 0 0 -1.2,-0.63 1.32,1.32 0 0 0 -1,0.43 1.72,1.72 0 0 0 -0.41,1.12 z"
       id="path136" />
    <path
       class="cls-4"
       d="m 506.87,78.2 h 0.83 v 0.74 a 2.26,2.26 0 0 1 0.79,-0.66 2.14,2.14 0 0 1 0.92,-0.2 1.53,1.53 0 0 1 1.51,0.78 2.8,2.8 0 0 1 0.21,1.21 v 3.36 h -0.89 v -3.3 a 1.86,1.86 0 0 0 -0.14,-0.77 0.86,0.86 0 0 0 -0.85,-0.49 1.56,1.56 0 0 0 -0.52,0.07 1.3,1.3 0 0 0 -0.63,0.42 1.43,1.43 0 0 0 -0.29,0.54 4,4 0 0 0 -0.06,0.79 v 2.74 h -0.88 z"
       id="path138" />
    <path
       class="cls-4"
       d="m 512.61,76.74 h 0.88 v 1.46 h 0.84 v 0.72 h -0.84 v 3.41 a 0.37,0.37 0 0 0 0.19,0.36 0.71,0.71 0 0 0 0.34,0.06 h 0.14 0.17 v 0.7 a 1.65,1.65 0 0 1 -0.32,0.06 h -0.35 a 0.93,0.93 0 0 1 -0.83,-0.31 1.39,1.39 0 0 1 -0.22,-0.82 V 78.92 H 511.9 V 78.2 h 0.71 z"
       id="path140" />
    <path
       class="cls-4"
       d="m 452.52,89.41 a 2.37,2.37 0 0 1 0.51,0.5 v -0.66 h 0.81 V 94 a 3.4,3.4 0 0 1 -0.3,1.57 2.09,2.09 0 0 1 -2.05,1.07 2.52,2.52 0 0 1 -1.42,-0.38 1.47,1.47 0 0 1 -0.64,-1.18 h 0.89 a 1,1 0 0 0 0.25,0.54 1.32,1.32 0 0 0 0.94,0.29 1.28,1.28 0 0 0 1.31,-0.71 3.89,3.89 0 0 0 0.17,-1.5 1.64,1.64 0 0 1 -0.63,0.6 2.11,2.11 0 0 1 -1,0.19 2.09,2.09 0 0 1 -1.48,-0.6 2.68,2.68 0 0 1 -0.63,-2 3,3 0 0 1 0.64,-2 2,2 0 0 1 1.54,-0.74 1.9,1.9 0 0 1 1.09,0.26 z m 0.11,0.94 a 1.3,1.3 0 0 0 -1,-0.47 1.26,1.26 0 0 0 -1.26,0.87 3.41,3.41 0 0 0 -0.18,1.22 2.14,2.14 0 0 0 0.36,1.34 1.12,1.12 0 0 0 1,0.46 1.34,1.34 0 0 0 1.32,-0.85 2.81,2.81 0 0 0 0.22,-1.13 2.21,2.21 0 0 0 -0.46,-1.44 z"
       id="path142" />
    <path
       class="cls-4"
       d="m 458.4,89.34 a 2.07,2.07 0 0 1 0.8,0.68 2.42,2.42 0 0 1 0.35,0.92 6.41,6.41 0 0 1 0.07,1.15 h -3.8 a 2.28,2.28 0 0 0 0.37,1.28 1.22,1.22 0 0 0 1.08,0.49 1.4,1.4 0 0 0 1.09,-0.46 1.72,1.72 0 0 0 0.33,-0.61 h 0.86 a 1.78,1.78 0 0 1 -0.23,0.64 2.43,2.43 0 0 1 -0.43,0.58 2,2 0 0 1 -1,0.52 2.62,2.62 0 0 1 -0.71,0.08 2.17,2.17 0 0 1 -1.65,-0.71 2.75,2.75 0 0 1 -0.67,-2 3,3 0 0 1 0.68,-2 2.21,2.21 0 0 1 1.77,-0.79 2.38,2.38 0 0 1 1.09,0.23 z m 0.32,2.06 a 2.35,2.35 0 0 0 -0.25,-0.92 1.26,1.26 0 0 0 -1.19,-0.63 1.32,1.32 0 0 0 -1,0.43 1.67,1.67 0 0 0 -0.43,1.12 z"
       id="path144" />
    <path
       class="cls-4"
       d="m 460.74,89.2 h 0.83 v 0.74 a 2.26,2.26 0 0 1 0.79,-0.66 2.11,2.11 0 0 1 0.92,-0.2 1.52,1.52 0 0 1 1.5,0.78 2.64,2.64 0 0 1 0.22,1.21 v 3.36 h -0.89 v -3.3 a 1.7,1.7 0 0 0 -0.15,-0.77 0.85,0.85 0 0 0 -0.85,-0.49 1.49,1.49 0 0 0 -0.51,0.07 1.41,1.41 0 0 0 -0.92,1 3.81,3.81 0 0 0 -0.07,0.79 v 2.74 h -0.87 z"
       id="path146" />
    <path
       class="cls-4"
       d="m 469.53,89.34 a 2,2 0 0 1 0.79,0.68 2.42,2.42 0 0 1 0.35,0.92 6.2,6.2 0 0 1 0.08,1.15 h -3.81 a 2.21,2.21 0 0 0 0.38,1.28 1.22,1.22 0 0 0 1.08,0.49 1.43,1.43 0 0 0 1.09,-0.46 1.7,1.7 0 0 0 0.32,-0.61 h 0.86 a 2,2 0 0 1 -0.22,0.64 2.73,2.73 0 0 1 -0.45,0.57 2.06,2.06 0 0 1 -1,0.52 2.62,2.62 0 0 1 -0.71,0.08 2.17,2.17 0 0 1 -1.65,-0.71 2.75,2.75 0 0 1 -0.67,-2 3,3 0 0 1 0.68,-2 2.21,2.21 0 0 1 1.78,-0.79 2.44,2.44 0 0 1 1.1,0.24 z m 0.31,2.06 a 2.36,2.36 0 0 0 -0.24,-0.92 1.27,1.27 0 0 0 -1.2,-0.63 1.32,1.32 0 0 0 -1,0.43 1.72,1.72 0 0 0 -0.4,1.12 z"
       id="path148" />
    <path
       class="cls-4"
       d="m 471.88,89.2 h 0.84 v 0.9 a 2,2 0 0 1 0.5,-0.64 1.33,1.33 0 0 1 0.92,-0.38 h 0.29 V 90 h -0.15 -0.14 a 1.25,1.25 0 0 0 -1,0.43 1.47,1.47 0 0 0 -0.36,1 v 3 h -0.88 z"
       id="path150" />
    <path
       class="cls-4"
       d="m 478,91.26 a 0.48,0.48 0 0 0 0.41,-0.25 0.77,0.77 0 0 0 0.06,-0.34 0.71,0.71 0 0 0 -0.32,-0.65 1.69,1.69 0 0 0 -0.92,-0.21 1,1 0 0 0 -1.18,1 h -0.82 a 1.5,1.5 0 0 1 0.62,-1.35 2.62,2.62 0 0 1 1.4,-0.38 2.87,2.87 0 0 1 1.5,0.35 1.2,1.2 0 0 1 0.57,1.1 v 3 a 0.38,0.38 0 0 0 0.06,0.22 c 0,0 0.11,0.08 0.23,0.08 h 0.14 0.15 v 0.65 a 1.38,1.38 0 0 1 -0.31,0.07 h -0.29 a 0.72,0.72 0 0 1 -0.66,-0.32 1.05,1.05 0 0 1 -0.15,-0.49 2.15,2.15 0 0 1 -0.78,0.61 2.26,2.26 0 0 1 -1.1,0.26 1.61,1.61 0 0 1 -1.19,-0.44 1.59,1.59 0 0 1 0,-2.23 2.12,2.12 0 0 1 1.19,-0.49 z m -1.85,2.38 a 1.09,1.09 0 0 0 0.66,0.22 2.06,2.06 0 0 0 0.9,-0.22 1.2,1.2 0 0 0 0.73,-1.16 v -0.71 a 1.3,1.3 0 0 1 -0.41,0.17 3.16,3.16 0 0 1 -0.5,0.1 L 477,92.11 a 2,2 0 0 0 -0.72,0.2 0.77,0.77 0 0 0 -0.41,0.73 0.75,0.75 0 0 0 0.27,0.6 z"
       id="path152" />
    <path
       class="cls-4"
       d="m 480.93,87.74 h 0.89 v 1.46 h 0.83 v 0.72 h -0.83 v 3.41 a 0.36,0.36 0 0 0 0.18,0.36 0.71,0.71 0 0 0 0.34,0.06 h 0.14 0.17 v 0.7 a 1.7,1.7 0 0 1 -0.31,0.06 h -0.36 a 0.93,0.93 0 0 1 -0.83,-0.31 1.39,1.39 0 0 1 -0.22,-0.82 v -3.46 h -0.71 V 89.2 h 0.71 z"
       id="path154" />
    <path
       class="cls-4"
       d="m 483.53,87.25 h 0.89 v 1 h -0.89 z m 0,2 h 0.89 v 5.21 h -0.89 z"
       id="path156" />
    <path
       class="cls-4"
       d="m 489.54,89.72 a 2.65,2.65 0 0 1 0.69,2 3.41,3.41 0 0 1 -0.61,2.09 2.19,2.19 0 0 1 -1.89,0.82 2.13,2.13 0 0 1 -1.71,-0.73 2.89,2.89 0 0 1 -0.63,-2 3.14,3.14 0 0 1 0.67,-2.09 2.22,2.22 0 0 1 1.78,-0.78 2.34,2.34 0 0 1 1.7,0.69 z M 489,93.2 a 3.31,3.31 0 0 0 0.33,-1.48 2.6,2.6 0 0 0 -0.24,-1.19 1.29,1.29 0 0 0 -1.26,-0.72 1.25,1.25 0 0 0 -1.16,0.62 2.87,2.87 0 0 0 -0.36,1.48 2.5,2.5 0 0 0 0.36,1.39 1.27,1.27 0 0 0 1.15,0.56 1.19,1.19 0 0 0 1.18,-0.66 z"
       id="path158" />
    <path
       class="cls-4"
       d="m 491.31,89.2 h 0.84 v 0.74 a 2.24,2.24 0 0 1 0.78,-0.66 2.18,2.18 0 0 1 0.93,-0.2 1.52,1.52 0 0 1 1.5,0.78 2.8,2.8 0 0 1 0.21,1.21 v 3.36 h -0.89 v -3.3 a 1.86,1.86 0 0 0 -0.14,-0.77 0.86,0.86 0 0 0 -0.85,-0.49 1.46,1.46 0 0 0 -0.51,0.07 1.33,1.33 0 0 0 -0.64,0.42 1.4,1.4 0 0 0 -0.28,0.54 3.22,3.22 0 0 0 -0.07,0.79 v 2.74 h -0.88 z"
       id="path160" />
    <text
       class="cls-5"
       transform="translate(115.32,72.43)"
       id="text168">Git<tspan
   class="cls-6"
   id="tspan166"><tspan
     x="-6.3899999"
     y="11"
     id="tspan162">tracks</tspan><tspan
     x="-11.67"
     y="22"
     id="tspan164">versions</tspan></tspan></text>
    <text
       class="cls-5"
       transform="translate(226.53,72.43)"
       id="text176">Make<tspan
   class="cls-6"
   id="tspan174"><tspan
     x="-8.0600004"
     y="11"
     id="tspan170">manages</tspan><tspan
     x="-18.629999"
     y="22"
     id="tspan172">dependencies</tspan></tspan></text>
    <line
       class="cls-7"
       x1="88.459999"
       y1="238.13"
       x2="96.720001"
       y2="238.13"
       id="line178" />
    <line
       class="cls-8"
       x1="88.459999"
       y1="342.51001"
       x2="88.459999"
       y2="132.75999"
       id="line180" />
    <line
       class="cls-8"
       x1="88.459999"
       y1="145.73"
       x2="96.720001"
       y2="145.73"
       id="line182" />
    <line
       class="cls-8"
       x1="88.459999"
       y1="198.73"
       x2="96.720001"
       y2="198.73"
       id="line184" />
    <line
       class="cls-8"
       x1="88.459999"
       y1="211.87"
       x2="96.720001"
       y2="211.87"
       id="line186" />
    <line
       class="cls-8"
       x1="88.459999"
       y1="251.25999"
       x2="96.720001"
       y2="251.25999"
       id="line188" />
    <line
       class="cls-8"
       x1="88.459999"
       y1="225"
       x2="96.720001"
       y2="225"
       id="line190" />
    <line
       class="cls-8"
       x1="88.459999"
       y1="264.39001"
       x2="96.720001"
       y2="264.39001"
       id="line192" />
    <line
       class="cls-8"
       x1="88.459999"
       y1="316.23999"
       x2="96.720001"
       y2="316.23999"
       id="line194" />
    <line
       class="cls-8"
       x1="88.459999"
       y1="329.38"
       x2="96.720001"
       y2="329.38"
       id="line196" />
    <line
       class="cls-8"
       x1="88.459999"
       y1="303.10999"
       x2="96.720001"
       y2="303.10999"
       id="line198" />
    <line
       class="cls-8"
       x1="88.459999"
       y1="342.51001"
       x2="96.720001"
       y2="342.51001"
       id="line200" />
    <g
       id="text5697">
      <text
         class="cls-9"
         transform="translate(101.48,149.48)"
         id="text202">data/</text>
    </g>
    <g
       id="text5697-7">
      <text
         class="cls-10"
         transform="translate(109.38,173.28)"
         id="text205">iris_prepped.csv</text>
    </g>
    <g
       id="g5847">
      <g
         id="text5697-7-0"
         class="cls-11">
        <text
           class="cls-9"
           transform="translate(109.38,185.18)"
           id="text208">...</text>
      </g>
    </g>
    <g
       id="text5697-7-4-4">
      <text
         class="cls-9"
         transform="translate(109.38,161.38)"
         id="text212">iris.csv</text>
    </g>
    <g
       id="text5697-7-1-0">
      <text
         class="cls-9"
         transform="translate(101.48,202.14)"
         id="text215">LICENSE.md</text>
    </g>
    <g
       id="text5913">
      <text
         class="cls-9"
         transform="translate(101.48,214.94)"
         id="text218">Dockerfile</text>
    </g>
    <g
       id="text5917">
      <text
         class="cls-9"
         transform="translate(101.48,227.74)"
         id="text221">Makefile</text>
    </g>
    <g
       id="text5921">
      <text
         class="cls-10"
         transform="translate(101.48,240.55)"
         id="text224">manuscript.pdf</text>
    </g>
    <g
       id="text5925">
      <text
         class="cls-9"
         transform="translate(101.48,266.15)"
         id="text227">R/</text>
    </g>
    <g
       id="text5929">
      <text
         class="cls-9"
         transform="translate(101.48,253.35)"
         id="text230">manuscript.Rmd</text>
    </g>
    <g
       id="text5697-7-0-8-4">
      <text
         class="cls-9"
         transform="translate(101.48,342.96)"
         id="text233">...</text>
    </g>
    <g
       id="text5838-5">
      <text
         class="cls-9"
         transform="translate(108.59,291.75)"
         id="text236">...</text>
    </g>
    <g
       id="text5697-7-4-4-8">
      <text
         class="cls-9"
         transform="translate(108.59,278.95)"
         id="text239">prepare_data.R</text>
    </g>
    <g
       id="text6055">
      <text
         class="cls-9"
         transform="translate(101.48,304.56)"
         id="text242">reproducible.Rproj</text>
    </g>
    <g
       id="text6059">
      <text
         class="cls-9"
         transform="translate(101.48,317.36)"
         id="text245">.git/</text>
    </g>
    <g
       id="text6063">
      <text
         class="cls-9"
         transform="translate(101.48,330.16)"
         id="text248">.gitignore</text>
    </g>
    <line
       class="cls-8"
       x1="96.720001"
       y1="290.09"
       x2="96.720001"
       y2="264.39001"
       id="line251" />
    <line
       class="cls-8"
       x1="96.720001"
       y1="277.57001"
       x2="104.99"
       y2="277.57001"
       id="line253" />
    <line
       class="cls-8"
       x1="96.720001"
       y1="290.70001"
       x2="104.99"
       y2="290.70001"
       id="line255" />
    <line
       class="cls-8"
       x1="96.720001"
       y1="184.5"
       x2="104.99"
       y2="184.5"
       id="line257" />
    <line
       class="cls-8"
       x1="96.720001"
       y1="171.91"
       x2="104.99"
       y2="171.91"
       id="line259" />
    <line
       class="cls-8"
       x1="96.720001"
       y1="158.75"
       x2="104.99"
       y2="158.75"
       id="line261" />
    <line
       class="cls-8"
       x1="96.720001"
       y1="184.49001"
       x2="96.720001"
       y2="146.48"
       id="line263" />
    <text
       class="cls-12"
       transform="rotate(-90,103.9,28.16)"
       id="text269"><tspan
         class="cls-13"
         id="tspan265">T</tspan><tspan
         x="5.1700001"
         y="0"
         id="tspan267">ime</tspan></text>
    <line
       class="cls-8"
       x1="189.38"
       y1="276.57001"
       x2="189.38"
       y2="158.82001"
       id="line271" />
    <line
       class="cls-8"
       x1="177.12"
       y1="249.17"
       x2="189.38"
       y2="249.17"
       id="line273" />
    <line
       class="cls-8"
       x1="177.12"
       y1="171.91"
       x2="189.38"
       y2="171.91"
       id="line275" />
    <line
       class="cls-8"
       x1="177.12"
       y1="276.57001"
       x2="189.38"
       y2="276.57001"
       id="line277" />
    <line
       class="cls-8"
       x1="145.12"
       y1="158.82001"
       x2="189.38"
       y2="158.82001"
       id="line279" />
    <polygon
       class="cls-14"
       points="79.14,110.15 79.14,111.6 79.14,115.73 79.14,124 96.15,124 96.15,111.6 83.74,111.6 83.74,110.15 "
       id="polygon281" />
    <polygon
       class="cls-15"
       points="82.11,114.09 82.11,115.54 82.11,119.67 82.11,127.95 99.11,127.95 99.11,115.54 86.71,115.54 86.71,114.09 "
       id="polygon283" />
    <polygon
       class="cls-16"
       points="85.07,118.03 85.07,119.48 85.07,123.61 85.07,131.89 102.08,131.89 102.08,119.48 89.67,119.48 89.67,118.03 "
       id="polygon285" />
    <rect
       class="cls-17"
       x="88.040001"
       y="123.42"
       width="17.01"
       height="12.41"
       id="rect287" />
    <rect
       class="cls-17"
       x="88.040001"
       y="121.98"
       width="4.5999999"
       height="5.5799999"
       id="rect289" />
    <text
       class="cls-18"
       transform="translate(205.96,207.25)"
       id="text293">B depends on<tspan
   class="cls-13"
   x="59.5"
   y="0"
   xml:space="preserve"
   id="tspan291"> A</tspan></text>
    <text
       class="cls-18"
       transform="matrix(0.9,0,0,1,237.52,192.28)"
       id="text295">=</text>
    <g
       id="text12524-1">
      <text
         class="cls-18"
         transform="translate(265.23,178.05)"
         id="text297">B</text>
    </g>
    <g
       id="text12524">
      <text
         class="cls-19"
         transform="translate(208.97,178.17)"
         id="text300">A</text>
    </g>
    <line
       class="cls-8"
       x1="217.62"
       y1="175.47"
       x2="257.12"
       y2="175.47"
       id="line303" />
    <polygon
       class="cls-4"
       points="256.1,171.98 256.1,178.96 262.14,175.47 "
       id="polygon305" />
    <line
       class="cls-20"
       x1="191.24001"
       y1="261.07001"
       x2="424.09"
       y2="261.07001"
       id="line307" />
    <polygon
       class="cls-4"
       points="423.26,258.23 423.26,263.91 428.18,261.07 "
       id="polygon309" />
    <rect
       class="cls-21"
       x="306.20999"
       y="157.67"
       width="99.209999"
       height="181.42"
       id="rect311" />
    <rect
       class="cls-22"
       x="314.72"
       y="165.81"
       width="82.199997"
       height="147.39999"
       id="rect313" />
    <rect
       class="cls-23"
       x="323.22"
       y="173.34"
       width="65.199997"
       height="53.860001"
       id="rect315" />
    <rect
       class="cls-24"
       x="330.31"
       y="180.08"
       width="51.02"
       height="25.51"
       id="rect317" />
    <rect
       class="cls-23"
       x="323.22"
       y="262.59"
       width="65.199997"
       height="25.51"
       id="rect319" />
    <rect
       class="cls-23"
       x="323.22"
       y="232.14"
       width="65.199997"
       height="25.51"
       id="rect321" />
    <g
       id="text7094">
      <text
         class="cls-9"
         transform="translate(331.15,304.06)"
         id="text327"><tspan
           class="cls-25"
           id="tspan323">V</tspan><tspan
           x="5.8400002"
           y="0"
           id="tspan325">irtual Linux</tspan></text>
    </g>
    <g
       id="text9720">
      <text
         class="cls-9"
         transform="translate(319.81,329.31)"
         id="text330">Operating System</text>
    </g>
    <g
       id="text9762">
      <text
         class="cls-9"
         transform="translate(343.81,248.12)"
         id="text337">La<tspan
   class="cls-26"
   x="10.01"
   y="0"
   id="tspan333">T</tspan><tspan
   x="14.51"
   y="0"
   id="tspan335">ex</tspan></text>
    </g>
    <g
       id="text7069">
      <text
         class="cls-9"
         transform="translate(336.06,196.07)"
         id="text340">Packages</text>
    </g>
    <g
       id="text7065">
      <text
         class="cls-9"
         transform="translate(336.31,220.09)"
         id="text347">R <tspan
   class="cls-27"
   x="9"
   y="0"
   id="tspan343">V</tspan><tspan
   x="14.51"
   y="0"
   id="tspan345">ersion</tspan></text>
    </g>
    <path
       class="cls-4"
       d="m 344.62,271.1 a 1.09,1.09 0 0 0 0.2,0.6 1.26,1.26 0 0 0 1.06,0.39 1.68,1.68 0 0 0 0.79,-0.19 0.66,0.66 0 0 0 0.34,-0.6 0.5,0.5 0 0 0 -0.28,-0.46 3.12,3.12 0 0 0 -0.68,-0.22 l -0.64,-0.16 a 3.18,3.18 0 0 1 -0.9,-0.33 1,1 0 0 1 -0.52,-0.89 1.32,1.32 0 0 1 0.49,-1.08 1.92,1.92 0 0 1 1.31,-0.41 1.81,1.81 0 0 1 1.55,0.62 1.31,1.31 0 0 1 0.29,0.85 h -0.75 a 0.84,0.84 0 0 0 -0.19,-0.48 1.25,1.25 0 0 0 -1,-0.31 1.14,1.14 0 0 0 -0.69,0.17 0.52,0.52 0 0 0 -0.24,0.45 0.57,0.57 0 0 0 0.31,0.49 1.87,1.87 0 0 0 0.53,0.19 l 0.53,0.13 a 4.3,4.3 0 0 1 1.17,0.4 1,1 0 0 1 0.46,0.95 1.47,1.47 0 0 1 -0.48,1.09 2.12,2.12 0 0 1 -1.47,0.45 2,2 0 0 1 -1.51,-0.47 1.76,1.76 0 0 1 -0.47,-1.18 z"
       id="path350" />
    <path
       class="cls-4"
       d="m 352.06,268.34 a 2.39,2.39 0 0 1 0.62,1.78 3.06,3.06 0 0 1 -0.55,1.88 2,2 0 0 1 -1.71,0.74 1.94,1.94 0 0 1 -1.53,-0.65 2.61,2.61 0 0 1 -0.57,-1.77 2.82,2.82 0 0 1 0.6,-1.89 2,2 0 0 1 1.61,-0.7 2.1,2.1 0 0 1 1.53,0.61 z m -0.49,3.13 a 3,3 0 0 0 0.28,-1.33 2.52,2.52 0 0 0 -0.2,-1.07 1.18,1.18 0 0 0 -1.14,-0.65 1.13,1.13 0 0 0 -1.05,0.56 2.62,2.62 0 0 0 -0.32,1.33 2.3,2.3 0 0 0 0.32,1.25 1.17,1.17 0 0 0 1,0.5 1.09,1.09 0 0 0 1.11,-0.59 z"
       id="path352" />
    <path
       class="cls-4"
       d="m 353.65,267.87 h 0.78 v 0.67 a 2.69,2.69 0 0 1 0.51,-0.51 1.53,1.53 0 0 1 0.89,-0.27 1.38,1.38 0 0 1 0.91,0.28 0.50249378,0.50249378 0 1 0 1,-0.1 1.74,1.74 0 0 1 0.8,-0.18 1.31,1.31 0 0 1 1.29,0.69 2.27,2.27 0 0 1 0.18,1 v 3.13 h -0.82 v -3.26 a 0.78,0.78 0 0 0 -0.23,-0.65 0.93,0.93 0 0 0 -0.58,-0.18 1.14,1.14 0 0 0 -0.8,0.32 1.36,1.36 0 0 0 -0.33,1 v 2.73 h -0.81 v -3.04 a 1.72,1.72 0 0 0 -0.11,-0.7 0.71,0.71 0 0 0 -0.68,-0.33 1.17,1.17 0 0 0 -0.81,0.35 1.68,1.68 0 0 0 -0.37,1.26 v 2.49 h -0.79 z"
       id="path354" />
    <path
       class="cls-4"
       d="m 364.06,268 a 1.78,1.78 0 0 1 0.71,0.61 2.11,2.11 0 0 1 0.31,0.83 5.09,5.09 0 0 1 0.07,1 h -3.42 a 2.1,2.1 0 0 0 0.33,1.16 1.13,1.13 0 0 0 1,0.43 1.27,1.27 0 0 0 1,-0.41 1.53,1.53 0 0 0 0.29,-0.55 h 0.78 a 1.65,1.65 0 0 1 -0.21,0.58 1.91,1.91 0 0 1 -0.39,0.52 1.79,1.79 0 0 1 -0.88,0.47 2.51,2.51 0 0 1 -0.64,0.07 2,2 0 0 1 -1.48,-0.64 2.46,2.46 0 0 1 -0.61,-1.79 2.71,2.71 0 0 1 0.61,-1.84 2,2 0 0 1 1.6,-0.71 2.14,2.14 0 0 1 0.93,0.27 z m 0.28,1.85 a 2.17,2.17 0 0 0 -0.22,-0.83 1.15,1.15 0 0 0 -1.08,-0.57 1.18,1.18 0 0 0 -0.91,0.4 1.47,1.47 0 0 0 -0.38,1 z"
       id="path356" />
    <path
       class="cls-4"
       d="m 339.32,281.29 a 1.74,1.74 0 0 0 0.25,0.89 1.63,1.63 0 0 0 1.48,0.65 2.39,2.39 0 0 0 0.86,-0.15 1,1 0 0 0 0.75,-1 0.84,0.84 0 0 0 -0.32,-0.75 2.84,2.84 0 0 0 -1,-0.38 l -0.85,-0.2 a 3.65,3.65 0 0 1 -1.17,-0.43 1.36,1.36 0 0 1 -0.6,-1.21 1.91,1.91 0 0 1 0.59,-1.43 2.31,2.31 0 0 1 1.66,-0.55 2.8,2.8 0 0 1 1.68,0.49 1.78,1.78 0 0 1 0.69,1.56 h -0.83 a 1.71,1.71 0 0 0 -0.26,-0.79 1.54,1.54 0 0 0 -1.31,-0.51 1.43,1.43 0 0 0 -1.06,0.33 1,1 0 0 0 -0.33,0.75 0.75,0.75 0 0 0 0.39,0.7 5.46,5.46 0 0 0 1.13,0.35 l 0.88,0.21 a 2.73,2.73 0 0 1 1,0.4 1.56,1.56 0 0 1 0.6,1.32 1.65,1.65 0 0 1 -0.77,1.53 3.28,3.28 0 0 1 -1.76,0.46 2.59,2.59 0 0 1 -1.84,-0.61 2.11,2.11 0 0 1 -0.65,-1.66 z"
       id="path358" />
    <path
       class="cls-4"
       d="m 348.06,279.14 a 2.39,2.39 0 0 1 0.62,1.78 3.06,3.06 0 0 1 -0.55,1.88 2,2 0 0 1 -1.71,0.74 1.94,1.94 0 0 1 -1.53,-0.65 2.61,2.61 0 0 1 -0.57,-1.77 2.82,2.82 0 0 1 0.6,-1.89 2,2 0 0 1 1.61,-0.7 2.1,2.1 0 0 1 1.53,0.61 z m -0.5,3.13 a 2.92,2.92 0 0 0 0.29,-1.33 2.37,2.37 0 0 0 -0.21,-1.07 1.17,1.17 0 0 0 -1.13,-0.65 1.15,1.15 0 0 0 -1.05,0.55 2.68,2.68 0 0 0 -0.32,1.34 2.3,2.3 0 0 0 0.32,1.25 1.17,1.17 0 0 0 1,0.5 1.07,1.07 0 0 0 1.1,-0.59 z"
       id="path360" />
    <path
       class="cls-4"
       d="m 350,277.23 a 1.2,1.2 0 0 1 1.07,-0.4 h 0.33 v 0.72 h -0.28 c -0.25,0 -0.39,0.06 -0.44,0.19 a 3.52,3.52 0 0 0 -0.07,0.95 h 0.79 v 0.62 h -0.79 v 4.06 h -0.78 v -4.06 h -0.66 v -0.62 h 0.66 V 278 a 1.41,1.41 0 0 1 0.17,-0.77 z"
       id="path362" />
    <path
       class="cls-4"
       d="m 352.31,277.35 h 0.8 v 1.32 h 0.75 v 0.64 h -0.75 v 3.08 a 0.33,0.33 0 0 0 0.17,0.33 0.74,0.74 0 0 0 0.3,0 h 0.28 v 0.62 a 1.4,1.4 0 0 1 -0.28,0.06 h -0.32 a 0.88,0.88 0 0 1 -0.75,-0.28 1.22,1.22 0 0 1 -0.2,-0.74 v -3.12 h -0.64 v -0.64 h 0.64 z"
       id="path364" />
    <path
       class="cls-4"
       d="m 355,278.67 0.9,3.71 0.92,-3.71 h 0.89 l 0.92,3.68 1,-3.68 h 0.8 l -1.37,4.7 h -0.82 l -1,-3.64 -0.93,3.64 h -0.82 l -1.36,-4.7 z"
       id="path366" />
    <path
       class="cls-4"
       d="m 363.67,280.53 a 0.44,0.44 0 0 0 0.37,-0.23 0.8,0.8 0 0 0 0,-0.31 0.66,0.66 0 0 0 -0.29,-0.59 1.53,1.53 0 0 0 -0.82,-0.18 1,1 0 0 0 -0.88,0.34 1.18,1.18 0 0 0 -0.18,0.55 h -0.74 a 1.34,1.34 0 0 1 0.56,-1.21 2.29,2.29 0 0 1 1.26,-0.35 2.59,2.59 0 0 1 1.35,0.32 1.07,1.07 0 0 1 0.51,1 v 2.72 a 0.36,0.36 0 0 0 0.05,0.19 0.24,0.24 0 0 0 0.21,0.08 h 0.12 0.14 v 0.59 l -0.28,0.06 h -0.26 a 0.68,0.68 0 0 1 -0.6,-0.29 1.15,1.15 0 0 1 -0.13,-0.44 2,2 0 0 1 -0.7,0.55 2.06,2.06 0 0 1 -1,0.23 1.48,1.48 0 0 1 -1.07,-0.39 1.33,1.33 0 0 1 -0.42,-1 1.29,1.29 0 0 1 0.41,-1 2,2 0 0 1 1.07,-0.45 z m -1.67,2.13 a 0.92,0.92 0 0 0 0.59,0.2 1.78,1.78 0 0 0 0.81,-0.19 1.1,1.1 0 0 0 0.66,-1.05 V 281 a 1.42,1.42 0 0 1 -0.37,0.16 2.51,2.51 0 0 1 -0.45,0.08 l -0.48,0.07 a 1.58,1.58 0 0 0 -0.65,0.18 0.68,0.68 0 0 0 -0.36,0.65 0.64,0.64 0 0 0 0.25,0.52 z"
       id="path368" />
    <path
       class="cls-4"
       d="m 366.18,278.67 h 0.75 v 0.81 a 1.78,1.78 0 0 1 0.45,-0.58 1.21,1.21 0 0 1 0.83,-0.34 h 0.26 v 0.84 h -0.13 -0.13 a 1.14,1.14 0 0 0 -0.92,0.38 1.37,1.37 0 0 0 -0.32,0.89 v 2.7 h -0.79 z"
       id="path370" />
    <path
       class="cls-4"
       d="m 372.06,278.8 a 1.71,1.71 0 0 1 0.71,0.61 2.12,2.12 0 0 1 0.32,0.83 6,6 0 0 1 0.07,1 h -3.43 a 2.1,2.1 0 0 0 0.34,1.16 1.11,1.11 0 0 0 1,0.43 1.25,1.25 0 0 0 1,-0.41 1.27,1.27 0 0 0 0.29,-0.55 h 0.78 a 1.82,1.82 0 0 1 -0.2,0.58 2.43,2.43 0 0 1 -0.39,0.52 1.82,1.82 0 0 1 -0.89,0.47 2.51,2.51 0 0 1 -0.64,0.07 2,2 0 0 1 -1.48,-0.64 2.5,2.5 0 0 1 -0.6,-1.79 2.71,2.71 0 0 1 0.61,-1.84 2,2 0 0 1 1.6,-0.71 2.07,2.07 0 0 1 0.91,0.27 z m 0.28,1.85 a 2,2 0 0 0 -0.22,-0.83 1.13,1.13 0 0 0 -1.08,-0.57 1.16,1.16 0 0 0 -0.9,0.4 1.48,1.48 0 0 0 -0.39,1 z"
       id="path372" />
    <rect
       class="cls-28"
       x="430.20999"
       y="157.67"
       width="85.040001"
       height="110.55"
       id="rect374" />
    <g
       id="text13002-7">
      <text
         class="cls-9"
         transform="translate(433.92,263.45)"
         id="text376">manuscript.pdf</text>
    </g>
    <g
       id="text13097">
      <text
         class="cls-9"
         transform="translate(433.92,169.92)"
         id="text379">Some text.</text>
    </g>
    <path
       id="rect13099"
       class="cls-29"
       d="M 505,230.29 H 452.89 V 176.42" />
    <ellipse
       id="path13102"
       class="cls-4"
       cx="467.94"
       cy="188.35001"
       rx="2.8199999"
       ry="2.7" />
    <ellipse
       id="path13104"
       class="cls-4"
       cx="487.16"
       cy="202.03999"
       rx="2.8199999"
       ry="2.7" />
    <ellipse
       id="path13106"
       class="cls-4"
       cx="491.54999"
       cy="180.97"
       rx="2.8199999"
       ry="2.7" />
    <ellipse
       id="path13108"
       class="cls-4"
       cx="474.53"
       cy="200.46001"
       rx="2.8199999"
       ry="2.7" />
    <ellipse
       id="path13110"
       class="cls-4"
       cx="470.95999"
       cy="219.42"
       rx="2.8199999"
       ry="2.7" />
    <ellipse
       id="path13112"
       class="cls-4"
       cx="464.09"
       cy="207.84"
       rx="2.8199999"
       ry="2.7" />
    <ellipse
       id="path13114"
       class="cls-4"
       cx="487.98001"
       cy="215.74001"
       rx="2.8199999"
       ry="2.7" />
    <g
       id="text13118">
      <text
         class="cls-9"
         transform="translate(453.66,240.44)"
         id="text390">Petal.Length</text>
    </g>
    <g
       id="text13118-0">
      <text
         class="cls-9"
         transform="rotate(-90,337.71,-111.34)"
         id="text393">Petal.Width</text>
    </g>
  </g>
</svg>
